<?xml version="1.0" standalone="no"?>
<!DOCTYPE svg PUBLIC "-//W3C//DTD SVG 20010904//EN"
 "http://www.w3.org/TR/2001/REC-SVG-20010904/DTD/svg10.dtd">
<svg version="1.0" xmlns="http://www.w3.org/2000/svg"
 width="612.000000pt" height="408.000000pt" viewBox="0 0 612.000000 408.000000"
 preserveAspectRatio="xMidYMid meet">

<g transform="translate(0.000000,408.000000) scale(0.100000,-0.100000)"
fill="#DCFCE7" stroke="none">
<path d="M365 4063 c100 -51 234 -247 298 -434 71 -204 77 -513 14 -635 -33
-63 -154 -144 -217 -144 -17 0 -40 -4 -50 -10 -29 -16 -87 -101 -99 -147 -7
-24 -22 -55 -35 -70 -24 -28 -25 -28 -153 -28 -94 0 -116 -2 -83 -8 25 -4 75
-6 113 -5 37 2 67 0 67 -3 0 -16 -95 -31 -158 -26 -56 4 -61 3 -32 -5 60 -17
149 -4 215 31 97 52 125 88 125 161 0 39 1 41 57 65 48 22 65 24 119 19 58 -6
68 -4 103 19 81 54 122 194 122 421 0 371 -84 585 -298 758 -48 40 -73 53
-101 55 l-37 2 30 -16z m156 -102 c134 -135 191 -256 223 -473 41 -272 2 -549
-86 -623 -34 -28 -90 -41 -121 -28 -21 9 -19 11 21 32 65 33 117 85 141 141
71 166 37 520 -73 744 -50 103 -135 222 -198 279 -29 26 -35 35 -18 27 14 -7
64 -52 111 -99z m-62 -1124 c-14 -12 -68 -34 -63 -26 3 6 16 14 28 19 21 9 43
13 35 7z m-104 -126 c-7 -40 -38 -91 -55 -91 -5 0 0 21 11 48 11 26 25 58 30
71 14 34 22 19 14 -28z"/>
<path d="M612 4021 c3 -43 12 -71 32 -101 15 -23 30 -39 34 -35 4 3 5 36 4 73
-2 37 1 79 7 95 l11 27 -46 0 -46 0 4 -59z"/>
<path d="M2685 4038 c-34 -248 -42 -443 -21 -549 23 -114 47 -159 117 -220
l60 -52 38 21 c49 28 80 28 122 -1 31 -21 35 -29 42 -87 4 -36 16 -76 26 -90
27 -37 137 -100 196 -112 69 -14 178 8 278 55 39 19 108 50 151 71 44 20 107
56 140 80 121 86 260 257 349 429 30 58 32 68 32 167 l0 106 -56 108 c-43 84
-61 110 -78 113 -21 3 -20 0 12 -37 21 -24 41 -64 51 -99 59 -210 -50 -441
-348 -736 -61 -60 -110 -114 -108 -118 1 -5 -2 -6 -7 -2 -6 3 -27 -5 -48 -19
-67 -44 -153 -60 -313 -61 -177 0 -191 6 -216 93 -21 74 -77 160 -110 168 -14
4 -49 4 -77 1 -96 -9 -116 -1 -142 57 -49 113 -83 278 -91 446 -5 103 -3 123
19 195 13 44 28 89 32 99 6 14 5 17 -3 12 -6 -4 -18 -28 -26 -54 l-15 -47 6
53 c7 62 -3 71 -12 10z m1519 -288 c1 -84 -2 -101 -26 -151 -49 -98 -164 -262
-234 -333 -56 -56 -217 -176 -237 -176 -3 0 45 51 106 113 261 263 380 485
361 669 l-5 43 17 -35 c13 -25 18 -62 18 -130z m-1519 -112 c15 -118 53 -265
81 -320 12 -23 13 -29 2 -26 -21 7 -68 90 -84 149 -15 53 -33 330 -20 318 3
-3 12 -57 21 -121z m170 -388 c19 -7 19 -8 2 -15 -12 -5 -24 -2 -35 9 -13 13
-14 16 -2 15 8 0 24 -4 35 -9z m230 -128 c4 -20 13 -49 21 -64 12 -24 12 -27
0 -22 -24 9 -43 46 -50 98 -7 44 -6 48 7 38 8 -7 18 -29 22 -50z m405 -129
c-69 -30 -169 -45 -224 -33 -28 6 -61 16 -73 23 -18 10 1 11 100 9 67 -2 140
1 162 6 59 15 75 12 35 -5z"/>
<path d="M4885 3982 c-69 -145 -78 -178 -79 -272 -1 -71 3 -92 22 -125 77
-136 88 -145 180 -153 52 -5 53 -5 79 -56 21 -41 26 -63 24 -114 -3 -83 22
-125 94 -158 77 -36 145 -46 305 -46 237 0 486 61 595 146 32 25 8 18 -36 -10
-176 -111 -609 -163 -814 -99 -36 12 -73 32 -97 55 -35 34 -38 41 -38 93 0 32
2 57 4 57 2 0 16 -20 31 -45 70 -120 133 -153 305 -162 205 -10 482 62 635
166 17 12 25 21 20 21 -6 0 -20 -6 -31 -14 -39 -28 -145 -77 -215 -101 -108
-37 -239 -57 -374 -59 -184 -2 -249 28 -327 148 -26 40 -38 70 -38 94 0 53
-70 115 -160 142 -99 29 -104 39 -109 180 -4 166 21 291 78 376 17 25 18 31 6
31 -9 0 -33 -37 -60 -95z m-27 -118 c-6 -21 -12 -94 -12 -161 -1 -111 -2 -120
-15 -95 -23 43 -19 156 8 235 24 72 38 88 19 21z m114 -388 c75 -22 81 -34 11
-25 -38 5 -63 15 -77 30 -14 14 -16 20 -6 17 8 -3 41 -13 72 -22z m148 -112
c0 -8 -2 -14 -5 -14 -6 0 -35 56 -35 67 1 14 40 -39 40 -53z"/>
<path d="M6025 4059 c4 -13 13 -34 21 -46 16 -25 62 -58 70 -51 3 3 -11 15
-31 27 -24 14 -37 30 -41 51 -4 17 -11 33 -16 36 -6 4 -7 -3 -3 -17z"/>
<path d="M6060 4077 c0 -15 29 -63 46 -78 15 -11 14 -9 -2 16 -12 17 -26 39
-32 50 -6 11 -12 16 -12 12z"/>
<path d="M1516 3980 c-81 -22 -159 -50 -153 -56 2 -3 46 10 98 27 111 38 252
50 340 29 103 -24 214 -94 252 -158 l17 -31 -62 25 c-174 68 -310 94 -520 98
-204 5 -218 -2 -129 -68 139 -102 261 -140 446 -140 140 -1 221 16 264 53 21
18 21 21 8 48 -21 39 -105 117 -155 142 -104 53 -276 66 -406 31z m182 -92
c46 -5 81 -12 78 -15 -3 -3 -42 0 -87 6 -45 6 -101 11 -123 11 -23 0 -48 5
-56 10 -16 10 50 6 188 -12z m-15 -19 c44 -6 93 -8 110 -5 20 4 25 3 14 -2
-13 -5 8 -13 72 -25 93 -18 181 -50 181 -65 0 -34 -188 -68 -318 -58 -133 10
-302 77 -392 156 l-25 21 140 -6 c77 -3 175 -10 218 -16z"/>
<path d="M3704 3945 c-30 -45 8 -113 80 -146 42 -19 101 -25 110 -11 2 4 -15
20 -39 35 -24 16 -60 52 -80 82 -45 68 -50 71 -71 40z"/>
<path d="M4613 3926 c-115 -104 -215 -277 -234 -408 -17 -117 14 -250 77 -326
l20 -24 51 49 c61 56 132 196 159 308 21 92 15 293 -13 379 l-19 60 -41 -38z
m74 -206 c6 -114 -8 -196 -49 -300 -42 -106 -114 -210 -145 -210 -47 0 50 467
139 667 l21 48 14 -50 c8 -27 16 -97 20 -155z m-113 92 c-61 -140 -94 -295
-102 -467 l-7 -150 -34 68 c-29 58 -35 82 -39 154 -6 106 9 176 58 273 34 67
147 217 156 207 2 -2 -12 -40 -32 -85z m-13 -93 c-10 -30 -26 -89 -37 -133
-10 -43 -20 -74 -22 -68 -6 19 65 269 74 259 2 -2 -4 -28 -15 -58z"/>
<path d="M2200 3907 c-48 -24 -52 -102 -7 -168 28 -42 64 -47 59 -9 -2 14 -5
58 -6 97 -2 84 -10 98 -46 80z"/>
<path d="M3299 3845 c-52 -28 -67 -127 -21 -133 13 -2 34 3 46 12 28 18 36 12
35 -23 -1 -25 -2 -25 -9 4 -7 28 -8 29 -9 5 -2 -55 46 -66 99 -22 27 23 34 36
34 65 0 46 -20 70 -56 65 -17 -3 -29 1 -33 10 -8 22 -6 28 6 12 9 -13 10 -13
6 0 -5 20 -65 23 -98 5z m67 -10 c9 -22 -15 -72 -44 -95 -33 -26 -38 -25 -50
8 -12 36 2 67 42 86 39 20 45 20 52 1z m81 -42 c-4 11 -3 16 3 12 6 -3 8 -17
5 -31 -3 -13 -7 -35 -10 -49 -5 -24 -56 -60 -69 -48 -12 12 -6 53 15 93 21 40
22 40 42 23 20 -17 20 -17 14 0z"/>
<path d="M5552 3829 c-39 -40 -45 -66 -21 -90 19 -19 45 -27 35 -10 -4 5 3 7
14 4 18 -5 19 -8 7 -22 -43 -48 -22 -88 40 -78 52 9 84 44 90 101 5 44 4 46
-19 46 -22 0 -24 4 -20 30 4 25 0 31 -23 40 -44 17 -71 11 -103 -21z m86 -5
c29 -20 28 -26 -8 -48 -36 -21 -93 -38 -85 -26 3 4 0 10 -6 12 -16 5 9 54 35
66 29 15 38 14 64 -4z m64 -99 c-4 -28 -36 -69 -56 -73 -28 -6 -66 7 -66 22 0
25 70 77 98 74 21 -2 26 -8 24 -23z"/>
<path d="M56 3451 c-4 -5 -3 -16 0 -25 5 -14 2 -15 -20 -6 -14 5 -26 8 -27 7
0 -1 -2 -13 -5 -26 -4 -20 -2 -22 10 -11 19 15 30 8 50 -34 19 -41 20 -47 3
-70 -12 -16 -14 -16 -40 4 -15 12 -27 17 -27 11 0 -18 59 -53 79 -46 20 6 36
49 25 67 -4 6 3 4 17 -5 30 -21 65 -22 73 -1 19 51 -8 116 -55 133 -39 13 -76
14 -83 2z m92 -31 c26 -16 32 -26 32 -55 0 -66 -55 -51 -87 23 -23 54 -2 66
55 32z"/>
<path d="M2500 3385 c0 -21 98 -115 120 -115 15 0 20 7 20 26 0 38 -17 62 -60
84 -46 24 -80 26 -80 5z"/>
<path d="M1311 3365 c-80 -23 -159 -77 -294 -205 -112 -104 -217 -278 -256
-420 -64 -234 -71 -269 -71 -332 0 -83 21 -139 72 -195 21 -24 38 -47 38 -53
0 -21 60 -40 127 -40 l68 0 31 -48 c21 -31 34 -65 39 -101 13 -107 60 -144
211 -162 170 -21 391 12 578 87 144 57 269 162 331 275 14 27 46 106 70 176
37 105 45 141 45 198 0 83 -23 140 -69 176 -17 13 -48 38 -68 56 -40 34 -118
59 -151 49 -13 -5 -34 4 -63 26 -67 52 -82 85 -88 203 -5 90 -9 106 -34 143
-39 55 -83 82 -213 130 -131 48 -222 59 -303 37z m199 -14 c19 -5 7 -9 -45
-14 -157 -15 -236 -59 -391 -219 -112 -115 -189 -214 -265 -339 -28 -46 -48
-73 -44 -59 20 69 71 183 113 250 81 131 305 337 409 374 40 15 180 19 223 7z
m128 -52 c111 -54 192 -177 192 -292 1 -117 39 -180 117 -192 21 -3 82 -19
135 -36 l97 -30 25 -52 c50 -105 58 -299 16 -393 -11 -26 -17 -51 -13 -57 3
-5 2 -7 -4 -4 -6 4 -24 -16 -42 -42 -74 -115 -210 -220 -365 -281 -85 -33
-289 -89 -334 -91 -17 -1 -20 -3 -10 -6 46 -12 316 66 432 124 106 53 212 142
284 238 31 42 16 1 -19 -50 -95 -141 -245 -227 -509 -293 -90 -22 -124 -25
-234 -24 -144 3 -176 12 -223 63 -46 50 -113 151 -113 172 0 10 -5 27 -11 38
-13 25 -110 68 -169 76 -61 8 -99 29 -111 61 -24 61 -40 173 -40 274 0 96 3
113 29 170 70 154 186 311 343 464 157 152 220 182 388 183 77 1 103 -3 139
-20z m123 -51 c73 -57 82 -76 90 -191 7 -122 15 -143 71 -198 37 -36 39 -41
18 -34 -32 9 -70 44 -81 74 -5 13 -13 63 -18 111 -11 103 -38 164 -101 228
-49 50 -39 55 21 10z m362 -455 c15 -7 27 -15 27 -17 0 -6 -108 29 -116 37
-12 11 58 -4 89 -20z m141 -135 c30 -59 34 -153 11 -223 l-13 -40 -1 75 c-1
82 -22 183 -47 231 -15 29 -15 30 4 20 11 -6 32 -34 46 -63z m-1536 -199 c1
-50 9 -121 17 -157 9 -36 14 -66 12 -68 -2 -2 -14 15 -27 38 -28 50 -39 169
-21 236 7 23 13 42 15 42 1 0 3 -41 4 -91z m172 -304 c74 -9 84 -25 15 -25
-45 0 -66 5 -85 20 l-25 21 25 -5 c14 -3 45 -8 70 -11z m151 -77 c16 -29 2
-21 -22 15 -17 23 -18 28 -6 18 10 -8 23 -23 28 -33z m82 -155 c26 -33 59 -70
74 -82 l28 -21 -48 14 c-55 17 -73 29 -92 67 -16 29 -29 108 -16 93 4 -5 29
-37 54 -71z"/>
<path d="M1975 2380 c-4 -6 3 -37 14 -70 12 -33 21 -76 21 -94 0 -76 53 -43
66 41 8 56 -14 109 -52 123 -32 13 -41 13 -49 0z"/>
<path d="M2443 3323 c-20 -58 10 -137 50 -131 19 3 22 9 20 40 -2 39 -37 118
-52 118 -5 0 -13 -12 -18 -27z"/>
<path d="M4182 3277 l-21 -23 81 -58 c53 -39 92 -60 114 -62 l32 -2 -14 40
c-39 110 -137 164 -192 105z m67 -12 c29 -15 85 -74 77 -82 -6 -6 -78 25 -98
44 -17 15 -25 53 -13 53 4 0 19 -7 34 -15z m48 0 c25 -18 63 -76 63 -96 -1 -8
-10 2 -20 22 -11 20 -33 48 -50 63 -34 28 -29 36 7 11z m38 -113 c-3 -3 -11 0
-18 7 -9 10 -8 11 6 5 10 -3 15 -9 12 -12z"/>
<path d="M2027 3186 c-24 -41 -35 -70 -31 -82 5 -15 4 -16 -4 -5 -9 12 -13 10
-23 -13 -10 -22 -10 -29 0 -35 9 -6 10 -11 2 -15 -6 -4 -11 -11 -11 -17 0 -17
96 39 124 71 19 23 26 43 26 73 0 43 -5 54 -30 74 -12 9 -21 1 -53 -51z m53
40 c0 -3 -4 -8 -10 -11 -5 -3 -10 -1 -10 4 0 6 5 11 10 11 6 0 10 -2 10 -4z
m16 -52 c3 -45 -14 -80 -55 -108 -57 -40 -58 -31 -2 22 28 26 51 54 51 62 0 8
-11 -2 -25 -22 -21 -31 -65 -68 -65 -55 0 27 36 110 53 122 29 20 40 15 43
-21z m-110 -111 c-10 -10 -19 5 -10 18 6 11 8 11 12 0 2 -7 1 -15 -2 -18z"/>
<path d="M4680 3206 c-70 -20 -105 -42 -150 -95 -70 -83 -177 -94 -270 -27
-73 52 -105 66 -154 66 -65 0 -134 -29 -227 -96 -102 -74 -163 -140 -197 -212
-25 -52 -27 -67 -26 -172 1 -125 22 -265 55 -363 43 -128 147 -306 171 -291 7
4 8 3 4 -4 -8 -14 51 -88 146 -185 108 -108 177 -131 335 -108 59 8 94 34 124
94 19 36 20 37 79 37 44 0 71 -6 106 -25 84 -44 164 -31 245 42 51 46 137 160
171 228 34 66 74 197 82 265 4 30 14 100 23 154 53 334 -58 577 -308 674 -86
34 -135 38 -209 18z m193 -29 c108 -45 245 -270 281 -462 34 -182 28 -271 -35
-458 -61 -186 -145 -314 -232 -356 -60 -29 -220 -42 -281 -23 -43 14 -46 14
-100 -18 -31 -17 -69 -47 -84 -67 -36 -46 -69 -62 -142 -70 -54 -5 -66 -3
-122 25 -36 17 -85 54 -113 83 l-50 51 50 -34 c84 -58 209 -119 243 -118 9 1
-11 12 -44 25 -78 30 -188 97 -257 157 -66 57 -120 156 -170 313 -56 176 -81
313 -82 445 0 143 18 206 83 292 55 74 125 114 219 128 82 11 145 -3 228 -52
50 -29 85 -42 122 -46 51 -4 53 -3 100 41 26 26 72 65 101 87 28 23 49 47 45
52 -3 6 -1 8 4 5 6 -4 26 0 44 8 40 18 139 14 192 -8z m-253 -10 c0 -2 -18
-18 -41 -36 -26 -21 -36 -26 -28 -13 13 21 69 60 69 49z m369 -41 c127 -81
211 -260 211 -451 0 -115 -15 -142 -23 -43 -15 172 -99 368 -205 481 -42 43
-37 47 17 13z m-814 -6 c22 -10 51 -28 65 -39 25 -21 25 -21 -24 0 -64 28
-147 34 -214 16 -66 -18 -52 -1 20 24 68 23 103 23 153 -1z m210 -90 c31 0 66
5 78 11 17 8 16 5 -6 -15 -42 -38 -113 -31 -172 18 -19 16 -18 16 12 1 18 -8
57 -15 88 -15z m-606 -103 c-48 -89 -62 -165 -56 -297 8 -161 76 -439 138
-562 30 -59 13 -44 -34 30 -105 164 -157 354 -160 582 -2 88 2 112 19 150 23
48 100 150 114 150 4 0 -5 -24 -21 -53z m1355 -699 c-46 -143 -163 -319 -251
-379 -58 -40 -119 -48 -173 -24 -22 10 -39 20 -37 22 2 2 41 8 87 14 94 11
138 27 183 65 67 56 142 186 183 318 10 32 20 53 22 47 2 -6 -4 -35 -14 -63z
m-546 -357 c8 -5 -1 -8 -25 -9 -28 -1 -34 1 -23 8 18 12 31 12 48 1z m-118
-71 c-20 -40 -61 -75 -80 -68 -9 3 84 108 96 108 2 0 -5 -18 -16 -40z"/>
<path d="M4290 1900 c-30 -20 -64 -32 -102 -36 -32 -4 -58 -11 -58 -16 0 -15
66 -38 110 -38 77 0 147 49 138 97 -5 28 -39 25 -88 -7z"/>
<path d="M2260 3115 c-87 -25 -141 -55 -198 -112 l-54 -54 37 -29 c21 -17 68
-39 104 -50 186 -58 366 -48 538 30 88 40 127 69 113 85 -15 18 -187 101 -250
120 -80 24 -222 29 -290 10z m300 -25 c58 -20 200 -86 200 -93 0 -2 -35 3 -77
11 -161 29 -402 16 -583 -32 -30 -8 -57 -13 -59 -10 -2 2 13 20 35 41 44 41
139 89 205 103 67 14 205 4 279 -20z m69 -86 c2 -2 -72 -3 -165 -2 -131 1
-151 3 -89 8 76 5 245 1 254 -6z m46 -14 c-28 -7 -27 -8 15 -10 25 -1 56 -5
69 -9 25 -7 25 -7 -10 -27 -64 -38 -173 -76 -259 -92 -100 -17 -240 -6 -341
28 -192 65 -115 97 261 109 326 10 301 10 265 1z"/>
<path d="M2893 2743 c-16 -97 -9 -262 16 -343 45 -146 161 -326 224 -346 12
-4 25 -11 29 -17 3 -6 16 5 27 24 68 110 68 288 0 423 -37 75 -121 177 -200
243 -41 35 -77 63 -81 63 -4 0 -10 -21 -15 -47z m196 -389 c51 -149 77 -279
58 -291 -5 -3 -35 22 -67 54 -76 78 -153 232 -176 353 -17 84 -15 254 3 283
11 19 126 -231 182 -399z m-27 287 c93 -99 144 -197 160 -311 13 -88 2 -174
-31 -237 l-17 -34 -12 97 c-7 53 -21 131 -32 173 -21 84 -87 252 -121 309 -12
20 -31 52 -42 71 l-20 33 20 -10 c11 -6 54 -47 95 -91z m-46 -43 c40 -79 84
-191 84 -211 -1 -6 -20 35 -44 93 -23 58 -52 124 -64 148 -13 23 -20 42 -17
42 2 0 21 -33 41 -72z"/>
<path d="M5320 2433 c0 -30 28 -96 54 -128 13 -17 17 -18 26 -5 31 47 -7 160
-55 160 -21 0 -25 -5 -25 -27z"/>
<path d="M5196 2364 c-4 -9 2 -31 12 -48 20 -35 85 -62 115 -49 16 7 16 10 1
31 -19 28 -92 82 -109 82 -7 0 -16 -7 -19 -16z"/>
<path d="M5433 2132 c-199 -120 -305 -255 -333 -423 -12 -71 -5 -149 19 -211
9 -24 13 -26 40 -18 120 34 289 252 337 435 8 33 18 104 21 158 7 114 7 114
-84 59z m67 -134 c-23 -152 -86 -280 -192 -394 -57 -61 -143 -123 -154 -111
-12 12 24 112 82 227 67 135 141 257 219 362 l50 67 3 -41 c2 -22 -2 -71 -8
-110z m-49 118 c-12 -13 -21 -27 -19 -32 2 -5 -23 -47 -54 -94 -31 -47 -75
-120 -98 -162 -23 -43 -43 -78 -45 -78 -17 0 92 192 162 285 21 28 30 44 21
37 -25 -20 -131 -179 -167 -251 -18 -34 -30 -70 -27 -78 3 -8 2 -12 -3 -9 -10
7 -76 -169 -84 -224 -7 -51 -31 63 -30 140 3 171 102 323 288 444 79 52 88 56
56 22z"/>
<path d="M2590 2120 c-54 -10 -128 -41 -171 -72 -45 -34 -90 -99 -152 -223
-111 -222 -138 -372 -112 -618 9 -84 22 -178 30 -209 29 -114 84 -191 162
-227 27 -12 59 -29 73 -37 36 -20 57 -18 126 15 l61 29 39 -22 c26 -14 48 -39
66 -71 39 -72 79 -105 128 -105 43 0 150 27 262 65 165 57 321 186 392 325 22
41 51 91 66 110 36 45 85 143 101 200 7 26 13 102 13 180 1 168 -17 233 -80
297 -70 70 -230 105 -310 67 -28 -14 -41 -14 -83 -4 -70 17 -115 60 -150 145
-56 133 -116 166 -305 164 -61 -1 -131 -5 -156 -9z m33 -24 c-240 -89 -391
-308 -453 -654 l-19 -107 6 80 c9 129 46 256 117 400 97 197 162 258 308 290
95 20 110 17 41 -9z m315 -7 c44 -22 84 -71 97 -119 l6 -25 -20 25 c-55 71
-90 97 -171 129 l-55 22 50 -6 c27 -3 69 -15 93 -26z m-53 -18 c72 -36 111
-77 156 -167 49 -96 67 -115 122 -121 26 -3 59 -1 74 5 16 6 74 14 130 17
l102 7 57 -53 c74 -70 115 -152 122 -239 5 -77 -14 -162 -79 -346 -40 -111
-47 -123 -108 -187 -93 -97 -350 -291 -460 -347 -88 -44 -186 -14 -289 91
l-61 61 -78 -6 c-43 -3 -103 -9 -134 -12 l-57 -6 -46 58 c-51 62 -124 206
-150 293 -32 110 -14 346 39 501 64 188 152 320 262 392 154 103 273 120 398
59z m204 -205 c9 -10 43 -32 76 -47 57 -27 58 -28 27 -29 -51 0 -89 25 -122
83 -16 28 -30 57 -30 62 1 6 8 -3 17 -20 8 -16 23 -39 32 -49z m330 -40 c-2
-2 -31 -6 -64 -9 -36 -3 -52 -2 -40 3 19 8 113 14 104 6z m168 -79 c26 -23 57
-87 68 -137 5 -27 -2 -18 -28 35 -20 39 -55 90 -79 115 -37 38 -39 41 -13 26
17 -10 40 -28 52 -39z m74 -371 c-6 -53 -20 -117 -30 -143 -19 -49 -61 -126
-66 -121 -1 2 17 64 42 138 24 74 47 156 50 183 3 26 8 45 11 43 2 -3 -1 -48
-7 -100z m-1380 -491 c67 -104 64 -99 41 -86 -61 33 -118 140 -137 257 -5 31
0 25 23 -31 15 -39 48 -102 73 -140z m1208 93 c-28 -55 -101 -147 -143 -182
-85 -69 -269 -166 -317 -166 -7 0 35 32 92 71 123 85 243 177 319 248 30 27
56 50 58 51 1 0 -3 -10 -9 -22z m-952 -219 c-25 -13 -53 -19 -80 -17 l-42 3
60 16 c85 23 108 22 62 -2z m283 -128 c25 -11 59 -21 75 -21 26 -1 27 -3 10
-10 -31 -13 -83 -11 -113 4 -15 8 -38 34 -51 58 l-24 43 29 -27 c16 -15 49
-36 74 -47z"/>
<path d="M3346 2120 c-59 -18 -86 -61 -101 -158 -6 -40 -6 -43 12 -33 10 5 25
12 34 15 18 5 139 141 139 155 0 6 -46 33 -53 30 -1 0 -15 -5 -31 -9z m44 -34
c0 -15 -14 -36 -37 -57 -21 -18 -37 -36 -36 -40 1 -4 -8 -15 -20 -25 l-22 -19
18 21 c13 15 15 23 6 26 -16 5 23 82 53 102 31 22 38 20 38 -8z m-94 -50 c-34
-70 -45 -78 -26 -19 10 30 45 83 56 83 1 0 -12 -29 -30 -64z m124 60 c0 -3 -4
-8 -10 -11 -5 -3 -10 -1 -10 4 0 6 5 11 10 11 6 0 10 -2 10 -4z"/>
<path d="M60 2033 c0 -43 71 -150 91 -137 12 7 11 65 -2 103 -10 29 -52 61
-79 61 -5 0 -10 -12 -10 -27z"/>
<path d="M599 1973 c-21 -51 -23 -262 -5 -346 30 -132 151 -345 208 -362 13
-4 26 -13 30 -19 4 -6 9 -8 11 -6 7 9 -13 215 -28 292 -31 149 -115 365 -138
351 -6 -3 -7 -1 -3 5 4 6 0 25 -9 42 -8 16 -12 30 -9 30 4 0 -1 9 -11 20 -24
27 -33 25 -46 -7z m84 -145 c102 -241 178 -558 133 -558 -25 0 -102 96 -145
182 -64 127 -85 227 -78 368 3 63 9 126 13 139 7 23 8 22 24 -12 10 -20 34
-73 53 -119z m61 -96 c18 -48 36 -103 40 -122 3 -19 -11 12 -32 70 -21 58 -46
122 -55 144 -10 21 -17 41 -17 45 1 13 32 -53 64 -137z m53 -184 c-3 -8 -6 -5
-6 6 -1 11 2 17 5 13 3 -3 4 -12 1 -19z"/>
<path d="M722 1892 c140 -145 193 -267 186 -426 -3 -75 -9 -103 -30 -146 -15
-30 -25 -56 -23 -59 3 -2 17 23 32 55 21 47 28 78 31 151 5 110 -16 194 -75
291 -42 68 -157 202 -175 202 -6 0 18 -30 54 -68z"/>
<path d="M5580 1928 c0 -28 44 -84 80 -103 39 -20 83 -19 103 3 27 30 20 41
-36 57 -30 8 -69 27 -87 40 -42 31 -60 32 -60 3z"/>
<path d="M0 1901 c0 -36 3 -40 30 -46 16 -4 39 -4 50 0 16 5 18 10 10 25 -9
17 -69 60 -84 60 -3 0 -6 -18 -6 -39z"/>
<path d="M1800 1770 c-32 -32 -40 -47 -40 -75 0 -40 21 -55 46 -34 21 17 64
104 64 129 0 31 -26 24 -70 -20z"/>
<path d="M1906 1748 c-16 -62 -3 -138 25 -138 23 0 39 29 39 72 0 66 -50 117
-64 66z"/>
<path d="M4943 1652 c3 -15 22 -63 41 -106 27 -58 40 -77 51 -72 10 3 15 -1
15 -12 0 -32 18 9 25 58 12 88 -38 160 -111 160 -24 0 -26 -3 -21 -28z m80 -6
c3 3 13 -6 22 -20 16 -24 24 -121 11 -134 -3 -3 -6 17 -6 44 -1 27 -7 63 -15
79 -16 36 -19 20 -4 -23 6 -17 9 -41 7 -54 -3 -21 -6 -19 -36 21 -42 58 -44
134 -2 96 9 -8 19 -12 23 -9z m7 -154 c0 -15 -2 -15 -10 -2 -13 20 -13 33 0
25 6 -3 10 -14 10 -23z"/>
<path d="M384 1566 c-16 -40 72 -116 134 -116 32 0 80 46 64 62 -4 4 -32 12
-62 18 -29 6 -69 19 -87 30 -41 24 -42 24 -49 6z"/>
<path d="M5402 1510 c-74 -18 -151 -61 -160 -90 -3 -8 9 -2 27 14 17 16 33 27
36 24 7 -6 -39 -49 -57 -51 -7 -2 -23 -12 -35 -24 -29 -29 -97 -46 -148 -39
-24 4 -68 26 -110 54 -68 46 -71 47 -145 47 -88 -1 -123 -16 -240 -105 -187
-142 -224 -230 -196 -465 34 -285 88 -410 287 -652 74 -90 150 -158 208 -185
38 -19 62 -22 142 -21 117 2 148 15 185 79 15 25 38 50 51 55 45 17 101 10
142 -16 121 -81 234 -7 353 230 33 66 75 145 94 175 102 168 144 405 100 570
-48 179 -138 290 -298 364 -118 54 -146 59 -236 36z m164 -25 c79 -23 155
-107 228 -254 97 -191 101 -399 15 -668 -29 -89 -34 -97 -117 -185 -94 -99
-172 -155 -260 -188 -54 -20 -59 -21 -106 -6 l-48 16 -54 -31 c-30 -17 -69
-49 -87 -71 -52 -64 -74 -72 -149 -48 -136 42 -309 162 -360 249 -104 175
-200 554 -184 728 8 82 35 169 67 214 12 17 19 32 16 35 -8 9 -58 -81 -73
-133 -22 -73 -27 -169 -15 -271 16 -126 72 -341 120 -459 45 -109 34 -105 -38
15 -78 130 -122 281 -140 477 -10 114 -2 186 29 248 25 50 92 128 113 131 8 1
33 18 56 39 27 24 63 43 112 58 106 32 166 24 295 -41 124 -63 150 -63 217 4
49 49 117 104 167 135 42 25 122 28 196 6z m-231 -15 c-3 -5 -11 -10 -16 -10
-6 0 -7 5 -4 10 3 6 11 10 16 10 6 0 7 -4 4 -10z m450 -105 c61 -61 119 -168
141 -261 20 -84 14 -257 -11 -349 -18 -63 -82 -211 -89 -204 -2 2 7 45 20 94
69 257 48 442 -74 651 -22 38 -60 91 -84 118 l-43 50 45 -25 c25 -13 68 -46
95 -74z m-840 25 c90 -57 128 -67 194 -52 25 6 48 9 50 7 2 -2 -12 -13 -30
-25 -44 -27 -84 -21 -160 24 -121 72 -217 84 -334 41 -17 -7 -17 -5 2 9 36 27
94 45 148 45 44 1 61 -5 130 -49z m792 -1008 c-30 -70 -96 -168 -140 -208 -73
-65 -135 -75 -198 -30 l-22 15 29 7 c68 16 170 81 253 161 47 45 87 82 88 83
1 0 -3 -13 -10 -28z m-791 -330 c73 -29 76 -31 42 -32 -70 0 -160 45 -245 124
-55 50 -37 47 46 -9 43 -29 114 -67 157 -83z m362 121 c-10 -2 -26 -2 -35 0
-10 3 -2 5 17 5 19 0 27 -2 18 -5z m-121 -70 c-19 -35 -45 -59 -77 -68 -20 -6
-15 3 29 49 30 30 57 54 59 52 2 -2 -3 -17 -11 -33z"/>
<path d="M5183 881 c-4 -17 -7 -18 -31 -6 -31 17 -56 6 -76 -33 -12 -23 -12
-33 -1 -66 19 -54 50 -84 73 -70 9 6 22 21 28 33 l11 22 17 -26 c34 -51 85
-22 86 50 0 47 -19 79 -60 100 -37 19 -41 19 -47 -4z m71 -42 c14 -17 26 -38
26 -48 0 -22 -28 -61 -44 -61 -18 0 -36 44 -36 89 0 60 15 66 54 20z m-97 -30
c3 -28 -1 -51 -11 -64 -14 -19 -14 -19 -35 -1 -17 15 -21 29 -19 62 2 23 5 41
8 39 3 -2 12 0 20 5 25 16 33 6 37 -41z"/>
<path d="M417 1320 c-190 -15 -288 -78 -371 -239 -57 -110 -61 -133 -6 -33 59
108 94 155 137 184 45 32 122 63 178 72 36 6 33 3 -31 -29 -80 -39 -156 -114
-213 -209 -39 -65 -113 -244 -108 -259 2 -6 14 19 26 54 109 303 307 478 497
439 75 -15 169 -65 203 -107 14 -18 44 -67 66 -109 48 -91 85 -119 150 -109
140 21 258 28 276 17 10 -6 24 -9 31 -7 19 7 72 -28 101 -67 45 -60 60 -122
60 -253 0 -243 -73 -407 -262 -587 -44 -43 -77 -78 -72 -78 22 0 190 181 233
250 158 254 153 634 -9 730 -76 45 -201 61 -270 35 -94 -36 -192 24 -238 146
-53 138 -145 177 -378 159z m241 -27 c63 -22 98 -57 122 -121 12 -31 31 -72
42 -90 20 -33 92 -82 121 -82 10 0 17 -5 17 -11 0 -17 -78 -4 -101 17 -11 10
-38 53 -61 96 -47 91 -115 158 -186 183 -85 30 -89 33 -42 28 25 -2 64 -11 88
-20z m511 -277 c-2 -2 -33 -6 -69 -10 -44 -4 -60 -3 -50 4 14 9 129 15 119 6z"/>
<path d="M985 1209 c-23 -21 -40 -48 -50 -82 -18 -62 -19 -70 -2 -60 6 4 19 6
28 5 9 -2 50 29 90 68 71 67 73 70 55 85 -33 25 -81 19 -121 -16z m95 -4 c0
-24 -29 -54 -75 -78 -16 -9 -24 -16 -16 -17 11 0 11 -3 1 -15 -15 -18 -34 -20
-23 -2 4 6 6 19 5 27 -1 9 14 36 35 60 30 36 33 42 13 29 -14 -9 -36 -38 -50
-64 -13 -26 -26 -43 -28 -37 -5 17 27 75 54 98 14 11 38 21 55 21 23 0 29 -5
29 -22z m22 -7 c-7 -7 -12 -8 -12 -2 0 14 12 26 19 19 2 -3 -1 -11 -7 -17z"/>
<path d="M1400 1235 c0 -2 11 -30 25 -61 36 -82 119 -188 195 -251 71 -60 217
-135 295 -152 52 -12 123 -12 131 0 2 4 -1 33 -7 65 -35 190 -201 335 -439
384 -87 18 -200 27 -200 15z m230 -32 c36 -8 99 -31 140 -51 132 -62 245 -201
258 -319 l5 -47 -66 75 c-115 132 -254 240 -416 321 l-96 49 55 -6 c30 -4 84
-13 120 -22z m-118 -17 c6 4 8 3 5 -4 -4 -6 25 -29 70 -55 175 -101 423 -301
423 -341 0 -24 -48 -20 -138 10 -190 63 -340 193 -431 371 -11 23 -21 45 -21
48 0 3 18 -4 40 -15 23 -11 46 -18 52 -14z m208 -116 c30 -21 73 -54 95 -74
22 -20 -4 -5 -58 33 -54 39 -123 84 -153 101 -30 18 -54 34 -54 37 0 7 104
-53 170 -97z"/>
<path d="M6044 1181 c-17 -10 -41 -35 -54 -55 -22 -36 -39 -116 -25 -116 4 0
25 20 46 44 21 24 54 51 74 60 30 15 35 22 35 51 0 30 -4 35 -22 35 -13 0 -37
-9 -54 -19z"/>
<path d="M1288 936 c84 -92 122 -210 102 -323 -32 -185 -148 -390 -308 -541
-42 -41 -68 -69 -57 -64 41 21 193 190 243 272 90 147 149 329 138 427 -3 29
-15 76 -26 105 -21 55 -102 168 -121 168 -7 0 7 -20 29 -44z"/>
<path d="M2129 871 c-24 -25 -29 -37 -29 -80 0 -58 24 -127 50 -141 16 -8 17
-3 16 58 0 44 6 83 18 114 30 78 1 104 -55 49z"/>
<path d="M4255 738 c-28 -22 -64 -89 -65 -120 0 -26 35 -22 53 6 9 13 41 38
72 56 30 17 55 37 55 44 0 40 -71 49 -115 14z"/>
<path d="M587 620 c-42 -33 -49 -129 -11 -144 18 -7 57 11 50 23 -3 4 1 8 9 8
10 0 13 -7 9 -23 -8 -30 12 -64 37 -64 35 0 79 53 79 95 0 34 -23 95 -37 95
-4 0 -15 -7 -25 -17 -17 -15 -18 -15 -18 3 0 46 -50 58 -93 24z m66 3 c-7 -2
-19 -2 -25 0 -7 3 -2 5 12 5 14 0 19 -2 13 -5z m10 -19 c10 -11 -35 -86 -60
-97 -27 -12 -28 -11 -36 24 -9 36 25 79 62 79 15 0 30 -3 34 -6z m78 -64 c9
-44 -5 -78 -37 -90 -32 -13 -44 -6 -44 26 0 41 42 108 64 101 6 -2 14 -19 17
-37z m-121 -44 c0 -2 -7 -7 -16 -10 -8 -3 -12 -2 -9 4 6 10 25 14 25 6z"/>
<path d="M3963 210 c-37 -22 -53 -48 -53 -84 0 -37 29 -34 67 7 75 79 66 126
-14 77z"/>
<path d="M4070 193 c-7 -16 -15 -56 -18 -90 -4 -59 -3 -63 16 -63 12 0 28 10
36 22 27 38 17 158 -13 158 -4 0 -14 -12 -21 -27z"/>
<path d="M0 132 c0 -17 64 -117 82 -128 8 -5 6 2 -5 16 -9 14 -30 48 -47 75
-16 28 -30 44 -30 37z"/>
<path d="M0 43 c0 -12 38 -48 45 -41 3 2 -6 15 -20 28 -14 13 -25 19 -25 13z"/>
</g>
</svg>
