<?xml version="1.0" standalone="no"?>
<!DOCTYPE svg PUBLIC "-//W3C//DTD SVG 20010904//EN"
 "http://www.w3.org/TR/2001/REC-SVG-20010904/DTD/svg10.dtd">
<svg version="1.0" xmlns="http://www.w3.org/2000/svg"
 width="1000.000000pt" height="800.000000pt" viewBox="0 0 1133.000000 980.000000"
 preserveAspectRatio="xMidYMid meet">

<g transform="translate(0.000000,980.000000) scale(0.100000,-0.100000)"
fill="#388E3C" stroke="none">
<path d="M845 9788 c-2 -7 -29 -143 -60 -303 -31 -159 -81 -411 -110 -560 -29
-148 -85 -432 -123 -630 -177 -904 -256 -1304 -291 -1480 l-37 -190 538 -3
538 -2 0 -1419 0 -1419 -47 -18 c-131 -50 -247 -153 -302 -267 -63 -131 -61
-92 -61 -1223 l0 -1032 -197 -4 c-187 -4 -202 -6 -273 -33 -198 -74 -341 -229
-396 -430 -14 -49 -18 -127 -21 -418 l-5 -357 5667 0 5667 0 -4 373 -4 372
-27 73 c-14 40 -42 99 -62 132 -49 81 -158 179 -247 223 -110 55 -178 67 -370
67 l-168 0 0 1041 c0 1137 2 1095 -58 1217 -53 108 -181 222 -296 263 l-51 17
-3 1421 -2 1421 536 0 536 0 -5 23 c-3 12 -26 126 -51 252 -85 433 -519 2648
-553 2823 l-16 82 -4819 0 c-3846 0 -4819 -3 -4823 -12z m7061 -273 c1 -11 8
-72 14 -135 23 -248 40 -421 55 -570 8 -85 17 -180 20 -210 3 -30 8 -71 10
-90 3 -19 14 -132 25 -250 11 -118 25 -258 30 -310 27 -265 86 -871 96 -992
l7 -78 -2497 0 c-1990 0 -2496 3 -2496 13 0 12 29 316 55 567 8 80 17 170 20
200 4 46 19 199 40 410 2 25 13 140 24 255 12 116 25 253 31 305 11 104 29
293 60 615 11 116 23 229 26 252 l6 43 2236 -3 c2227 -2 2235 -2 2238 -22z
m-4746 -12 c-1 -27 -9 -124 -29 -313 -6 -52 -15 -142 -20 -200 -6 -58 -20
-197 -31 -310 -11 -113 -27 -277 -36 -365 -8 -88 -26 -268 -40 -400 -13 -132
-29 -289 -34 -350 -5 -60 -14 -153 -20 -205 -5 -52 -17 -169 -25 -260 -9 -91
-17 -176 -19 -190 l-3 -25 -1169 -3 c-643 -1 -1174 0 -1180 2 -7 3 -3 42 13
123 13 65 30 150 37 188 31 159 99 510 126 645 16 80 57 287 90 460 34 173 77
389 95 480 19 91 59 297 91 458 l57 292 1048 0 1049 0 0 -27z m7114 10 c2 -10
7 -34 11 -53 3 -19 12 -64 20 -100 8 -36 33 -162 55 -280 22 -118 47 -244 55
-280 8 -36 31 -150 50 -255 20 -104 52 -266 70 -360 18 -93 52 -264 74 -380
22 -115 47 -241 55 -280 14 -65 110 -556 121 -617 l5 -28 -1179 0 -1179 0 -6
38 c-4 20 -13 109 -21 197 -32 352 -45 484 -54 570 -6 50 -19 185 -30 300 -11
116 -27 278 -35 360 -9 83 -27 269 -41 415 -14 146 -32 326 -40 400 -7 74 -17
167 -20 205 -3 39 -8 91 -11 118 l-6 47 1050 0 c992 0 1051 -1 1056 -17z
m-7836 -4305 l2 -1408 -435 0 -435 0 0 1410 0 1409 433 -2 432 -2 3 -1407z
m6202 -3 l0 -1415 -220 0 -220 0 0 650 0 650 -1150 0 -1150 0 0 -650 0 -650
-829 0 c-457 0 -832 3 -834 8 -3 4 12 102 33 217 21 116 64 354 95 530 31 176
59 328 61 338 5 16 -31 17 -650 17 -565 0 -656 -2 -656 -14 0 -8 43 -255 95
-548 52 -293 95 -536 95 -540 0 -5 -136 -7 -302 -6 l-303 3 -3 1400 c-1 770 0
1406 3 1413 3 9 607 12 2970 12 l2965 0 0 -1415z m1138 3 l2 -1408 -440 0
-440 0 0 1403 c0 772 3 1407 7 1410 3 4 200 6 437 5 l431 -3 3 -1407z m-1838
-568 l0 -190 -880 0 c-484 0 -883 0 -887 0 -5 0 -9 85 -11 190 l-2 190 890 0
890 0 0 -190z m-3830 -12 c0 -7 -32 -196 -72 -420 l-72 -408 -193 0 c-192 0
-193 0 -198 23 -3 12 -34 189 -70 392 -36 204 -68 382 -71 398 l-6 27 341 0
c266 0 341 -3 341 -12z m3830 -638 l0 -190 -890 0 -890 0 0 190 0 190 890 0
890 0 0 -190z m2089 -483 c63 -35 119 -96 141 -153 20 -54 20 -73 20 -1084 l0
-1030 -4517 2 -4518 3 -3 1005 c-1 691 1 1021 9 1057 19 93 94 179 184 211 21
7 1320 10 4340 9 4160 -2 4311 -3 4344 -20z m814 -2559 c79 -37 132 -81 164
-135 50 -86 54 -112 54 -337 l0 -211 -5393 0 -5393 0 0 225 c0 219 1 226 25
275 50 102 145 179 250 201 42 10 1230 12 5145 11 l5090 -2 58 -27z"/>
<path d="M2110 2911 c-95 -19 -187 -93 -236 -190 l-25 -50 3 -378 3 -378 25
-50 c32 -66 90 -121 159 -154 l56 -26 3560 -3 3560 -2 60 21 c109 40 192 131
215 239 8 38 11 158 8 390 -3 320 -4 337 -25 383 -48 102 -128 169 -231 193
-47 11 -670 14 -3577 13 -1936 -1 -3536 -4 -3555 -8z m7102 -278 c17 -15 18
-39 18 -339 l0 -323 -30 -16 c-26 -13 -412 -15 -3535 -15 l-3506 0 -24 25 -25
24 0 311 c0 297 1 311 20 330 20 20 33 20 3542 20 3263 0 3523 -1 3540 -17z"/>
</g>
</svg>
